<svg width="44" height="27" viewBox="0 0 44 27" fill="none" xmlns="http://www.w3.org/2000/svg">
<path d="M22 0C13.5933 0 5.96972 4.57236 0.344277 11.9991C-0.114759 12.6075 -0.114759 13.4576 0.344277 14.066C5.96972 21.5017 13.5933 26.0741 22 26.0741C30.4067 26.0741 38.0303 21.5017 43.6557 14.075C44.1148 13.4665 44.1148 12.6165 43.6557 12.008C38.0303 4.57236 30.4067 0 22 0ZM22.603 22.2175C17.0226 22.5665 12.4142 17.9942 12.7653 12.4375C13.0533 7.85622 16.7886 4.14286 21.397 3.85653C26.9774 3.50756 31.5858 8.07992 31.2347 13.6365C30.9377 18.2089 27.2024 21.9223 22.603 22.2175ZM22.324 17.9763C19.3178 18.1642 16.8336 15.7035 17.0316 12.7149C17.1846 10.2453 19.2008 8.24993 21.685 8.08887C24.6912 7.90096 27.1754 10.3616 26.9774 13.3502C26.8154 15.8288 24.7992 17.8241 22.324 17.9763Z" fill="white"/>
</svg>
