<svg width="40" height="38" viewBox="0 0 40 38" fill="none" xmlns="http://www.w3.org/2000/svg">
<path d="M30.5267 21.6247L29.2344 23.5722L27.6342 15.5698L26.4102 19.0101C26.5982 19.5481 26.9219 20.5624 27.1729 21.7852L27.4088 21.1279L28.4297 26.2306L31.0692 22.9352H39.3166V21.6247H30.5267Z" fill="white"/>
<path d="M14.1407 7.46446C14.6243 7.22791 15.1295 7.03656 15.6504 6.89109L15.1596 0.506655C15.1334 0.163942 14.7638 -0.0785136 14.4395 0.0276425L13.7737 0.249784C13.374 0.382807 13.106 0.755008 13.106 1.1757C13.106 1.22943 13.1105 1.28317 13.1191 1.3369L14.1407 7.46446Z" fill="white"/>
<path d="M15.3384 13.1058C16.7079 13.1058 18.0519 12.6347 19.122 11.7788C20.1501 10.9565 21.3801 10.4073 22.6782 10.1911L23.3656 10.0764C21.9921 8.69967 20.0964 7.86353 18.027 7.86353C15.569 7.86353 13.2605 9.06532 11.8516 11.0797C11.6983 11.2992 11.5548 11.5239 11.4185 11.7513C12.4944 12.6261 13.8292 13.1058 15.2309 13.1058H15.3384Z" fill="white"/>
<path d="M0.423969 8.32605L3.12177 9.67462C4.05228 10.1399 4.73574 10.9564 5.04897 11.9255C5.49325 11.8443 5.94736 11.7951 6.41392 11.7951H6.49976C7.01285 11.7951 7.52791 11.8462 8.02985 11.9465L9.65889 12.2722C9.9636 11.611 10.3299 10.9747 10.7512 10.3679L9.39547 9.01213C8.84306 8.45972 8.50559 7.72646 8.4453 6.94667L7.95319 0.547819C7.92566 0.192 7.55739 -0.070769 7.21861 0.0170391L5.84317 0.360408C5.48932 0.450182 5.24227 0.766684 5.24227 1.13233C5.24227 1.19786 5.25014 1.26208 5.26586 1.32433L6.33267 5.59089C6.52532 6.36412 6.16295 7.15243 5.45 7.5089C4.87532 7.79657 4.19841 7.73563 3.68335 7.34902L1.97503 6.06793C1.59889 5.78747 1.01307 5.88642 0.752266 6.27763L0.128436 7.21272C0.0445594 7.33984 0 7.48663 0 7.63931C0 7.93156 0.162511 8.19499 0.423969 8.32605Z" fill="white"/>
<path d="M4.80746 21.6242C6.88865 21.6242 8.51834 19.9663 8.51834 17.8491V17.4939C8.51834 16.125 8.73851 14.7837 9.16707 13.5104L7.77262 13.2313C7.35455 13.1481 6.926 13.1055 6.49941 13.1055H6.41356C2.96415 13.1055 0.141837 15.9022 0.00488281 19.3923L0.419678 19.8071C1.59198 20.9787 3.15025 21.6242 4.80746 21.6242Z" fill="white"/>
<path d="M19.3687 6.66157L20.9066 2.04772C20.9486 1.92321 20.9695 1.79216 20.9695 1.6611C20.9695 1.25089 20.7657 0.87017 20.4243 0.642787L19.5823 0.0812082C19.3051 -0.103582 18.8903 0.0753106 18.8359 0.404919L17.8091 6.56656C17.8825 6.56459 17.9539 6.5528 18.0273 6.5528C18.4834 6.5528 18.9296 6.59473 19.3687 6.66157Z" fill="white"/>
<path d="M25.3985 5.1943C25.5007 5.07176 25.5564 4.91711 25.5564 4.75788C25.5564 4.49773 25.4123 4.26445 25.1796 4.14781L24.9582 4.03706C24.5093 3.8123 23.9254 3.97612 23.6594 4.40271L21.7925 7.3895C22.2125 7.58674 22.6129 7.82002 22.9943 8.07886L25.3985 5.1943Z" fill="white"/>
<path d="M15.0718 24.2454C16.1575 24.2454 17.0377 23.3653 17.0377 22.2796C17.0377 21.1939 16.1575 20.3137 15.0718 20.3137C13.9861 20.3137 13.106 21.1939 13.106 22.2796C13.106 23.3653 13.9861 24.2454 15.0718 24.2454Z" fill="white"/>
<path d="M21.642 19.3202L20.8386 22.9348H18.2811C17.9764 24.4282 16.6533 25.5559 15.0708 25.5559C13.2642 25.5559 11.7944 24.0861 11.7944 22.2795C11.7944 20.4729 13.2642 19.0031 15.0708 19.0031C16.6527 19.0031 17.9764 20.1308 18.2811 21.6242H19.7876L21.6053 13.4437L24.3064 24.9223L26.4099 19.0096C26.3201 18.7521 26.2598 18.5981 26.2572 18.5916L26.2205 18.4625L25.4492 14.0924C25.2644 13.0466 24.866 12.0879 24.3116 11.2478L22.893 11.4844C21.815 11.6639 20.7941 12.12 19.9402 12.8028C18.6382 13.8427 17.0039 14.4161 15.3375 14.4161H15.2294C13.6161 14.4161 12.0775 13.8912 10.8069 12.9338C10.168 14.3604 9.82855 15.9049 9.82855 17.494V17.8491C9.82855 20.6538 7.57568 22.9348 4.80711 22.9348C3.06733 22.9348 1.41798 22.3477 0.0844727 21.2671C0.419978 24.3024 1.73513 27.1679 3.87333 29.4706C6.7225 32.5393 10.2833 34.9855 14.1711 36.5457L17.4534 37.8609C18.0242 38.0889 18.7168 38.0476 19.1978 37.6558L19.5228 37.3904C23.4388 34.1854 26.2768 29.7242 27.5212 24.8207C27.514 23.7709 27.3653 22.7192 27.1733 21.7841L24.1839 30.122L21.642 19.3202Z" fill="white"/>
</svg>
