<svg width="33" height="38" viewBox="0 0 33 38" fill="none" xmlns="http://www.w3.org/2000/svg">
<path d="M30.055 2.65283C26.8755 -0.30908 23.2764 -0.30504 20.5862 0.359582C17.9061 1.02158 15.094 1.02158 12.4138 0.359582C9.7236 -0.30504 6.12454 -0.30908 2.9449 2.65283C-3.07958 8.26495 1.76827 18.29 3.22736 20.0168C4.68646 21.7436 4.73343 24.046 5.76893 28.7468C6.80443 33.4477 8.12219 37.9085 10.7579 37.237C13.3936 36.5655 14.0997 33.3038 14.7586 28.9387C14.804 28.6385 14.8511 28.3569 14.8999 28.0923C15.2349 26.2774 17.765 26.2774 18.1 28.0923C18.1487 28.3567 18.1961 28.6385 18.2415 28.9387C18.9004 33.3038 19.6064 36.5655 22.2421 37.237C24.8779 37.9085 26.1956 33.4477 27.2311 28.7468C28.2666 24.046 28.3136 21.7436 29.7727 20.0168C31.2318 18.29 36.0796 8.26495 30.055 2.65283ZM11.6539 4.83316C11.5809 5.38465 11.084 5.77211 10.5432 5.70019C10.3496 5.67575 6.05298 5.19233 4.84582 9.97277C4.73066 10.4285 4.32808 10.7313 3.88664 10.7313C3.80478 10.7313 3.72172 10.721 3.63887 10.6992C3.10883 10.5602 2.7897 10.0095 2.92607 9.46935C4.24879 4.23116 8.65718 3.40391 10.8035 3.69744C11.346 3.77178 11.7266 4.28025 11.6539 4.83316Z" fill="white"/>
</svg>
